<?xml version="1.0" encoding="UTF-8" standalone="no"?>
<!DOCTYPE svg PUBLIC "-//W3C//DTD SVG 1.1//EN" "http://www.w3.org/Graphics/SVG/1.1/DTD/svg11.dtd">
<svg width="100%" height="100%" viewBox="0 0 250 100" version="1.1" xmlns="http://www.w3.org/2000/svg" xmlns:xlink="http://www.w3.org/1999/xlink" xml:space="preserve" xmlns:serif="http://www.serif.com/" style="fill-rule:evenodd;clip-rule:evenodd;stroke-linejoin:round;stroke-miterlimit:2;">
    <g transform="matrix(1,0,0,1,1.83496,78.627)">
        <g transform="matrix(108,0,0,108,0,0)">
            <path d="M0.406,-0.263L0.406,-0.384L0.717,-0.384L0.717,-0.099C0.687,-0.069 0.643,-0.044 0.586,-0.021C0.528,0.001 0.47,0.012 0.411,0.012C0.336,0.012 0.271,-0.003 0.215,-0.035C0.16,-0.066 0.118,-0.111 0.09,-0.17C0.062,-0.228 0.048,-0.292 0.048,-0.36C0.048,-0.435 0.063,-0.501 0.095,-0.559C0.126,-0.617 0.172,-0.661 0.232,-0.692C0.278,-0.716 0.335,-0.728 0.403,-0.728C0.492,-0.728 0.562,-0.709 0.612,-0.672C0.662,-0.635 0.694,-0.583 0.708,-0.518L0.564,-0.491C0.554,-0.526 0.535,-0.554 0.508,-0.574C0.48,-0.594 0.445,-0.604 0.403,-0.604C0.34,-0.604 0.29,-0.584 0.253,-0.544C0.215,-0.504 0.197,-0.445 0.197,-0.366C0.197,-0.281 0.216,-0.218 0.253,-0.175C0.291,-0.133 0.341,-0.111 0.402,-0.111C0.432,-0.111 0.462,-0.117 0.493,-0.129C0.523,-0.141 0.549,-0.155 0.571,-0.172L0.571,-0.263L0.406,-0.263Z" style="fill:rgb(192,0,0);fill-rule:nonzero;"/>
        </g>
        <g transform="matrix(108,0,0,108,84.0059,0)">
            <path d="M0.071,0L0.071,-0.716L0.287,-0.716L0.417,-0.228L0.545,-0.716L0.762,-0.716L0.762,0L0.628,0L0.628,-0.563L0.486,0L0.347,0L0.205,-0.563L0.205,0L0.071,0Z" style="fill:rgb(192,0,0);fill-rule:nonzero;"/>
        </g>
        <g transform="matrix(108,0,0,108,173.971,0)">
            <path d="M0.073,0L0.073,-0.716L0.305,-0.716C0.393,-0.716 0.45,-0.712 0.477,-0.705C0.518,-0.694 0.552,-0.671 0.58,-0.635C0.607,-0.599 0.621,-0.553 0.621,-0.496C0.621,-0.452 0.613,-0.415 0.597,-0.385C0.581,-0.355 0.561,-0.331 0.536,-0.314C0.512,-0.297 0.487,-0.286 0.461,-0.28C0.427,-0.273 0.377,-0.27 0.312,-0.27L0.217,-0.27L0.217,0L0.073,0ZM0.217,-0.595L0.217,-0.392L0.296,-0.392C0.353,-0.392 0.391,-0.395 0.411,-0.403C0.43,-0.41 0.445,-0.422 0.456,-0.438C0.467,-0.454 0.472,-0.472 0.472,-0.494C0.472,-0.52 0.465,-0.541 0.449,-0.558C0.434,-0.575 0.415,-0.586 0.391,-0.59C0.374,-0.593 0.339,-0.595 0.287,-0.595L0.217,-0.595Z" style="fill:rgb(192,0,0);fill-rule:nonzero;"/>
        </g>
    </g>
    <g transform="matrix(1,0,0,1,12,99.7881)">
        <g transform="matrix(14,0,0,14,0,0)">
            <path d="M0.56,-0.093L0.302,-0.298L0.302,-0.339L0.56,-0.543L0.56,-0.452L0.385,-0.318L0.56,-0.185L0.56,-0.093ZM0.35,-0.079L0.081,-0.297L0.081,-0.34L0.35,-0.558L0.35,-0.462L0.168,-0.318L0.35,-0.175L0.35,-0.079Z" style="fill-rule:nonzero;"/>
        </g>
        <g transform="matrix(14,0,0,14,9.02344,0)">
            <path d="M0.671,0L0.568,0L0.497,-0.203L0.182,-0.203L0.111,0L0.013,0L0.277,-0.727L0.406,-0.727L0.671,0ZM0.467,-0.286L0.339,-0.643L0.211,-0.286L0.467,-0.286Z" style="fill-rule:nonzero;"/>
        </g>
        <g transform="matrix(14,0,0,14,18.5938,0)">
            <path d="M0.431,-0.445L0.426,-0.445C0.412,-0.449 0.399,-0.451 0.386,-0.452C0.373,-0.454 0.358,-0.455 0.34,-0.455C0.312,-0.455 0.285,-0.448 0.258,-0.436C0.232,-0.423 0.207,-0.407 0.182,-0.387L0.182,0L0.09,0L0.09,-0.545L0.182,-0.545L0.182,-0.465C0.219,-0.494 0.251,-0.515 0.279,-0.527C0.306,-0.539 0.335,-0.545 0.364,-0.545C0.38,-0.545 0.391,-0.545 0.398,-0.544C0.406,-0.543 0.416,-0.542 0.431,-0.54L0.431,-0.445Z" style="fill-rule:nonzero;"/>
        </g>
        <g transform="matrix(14,0,0,14,24.5684,0)">
            <path d="M0.189,-0.637L0.085,-0.637L0.085,-0.732L0.189,-0.732L0.189,-0.637ZM0.183,0L0.091,0L0.091,-0.545L0.183,-0.545L0.183,0Z" style="fill-rule:nonzero;"/>
        </g>
        <g transform="matrix(14,0,0,14,28.4102,0)">
            <path d="M0.374,-0.005C0.356,0 0.337,0.003 0.317,0.006C0.297,0.009 0.279,0.011 0.263,0.011C0.207,0.011 0.165,-0.004 0.136,-0.034C0.107,-0.064 0.092,-0.112 0.092,-0.178L0.092,-0.468L0.03,-0.468L0.03,-0.545L0.092,-0.545L0.092,-0.702L0.184,-0.702L0.184,-0.545L0.374,-0.545L0.374,-0.468L0.184,-0.468L0.184,-0.22C0.184,-0.191 0.185,-0.169 0.186,-0.153C0.187,-0.136 0.192,-0.121 0.2,-0.107C0.207,-0.094 0.217,-0.085 0.229,-0.079C0.242,-0.073 0.261,-0.07 0.287,-0.07C0.302,-0.07 0.317,-0.072 0.333,-0.076C0.35,-0.081 0.361,-0.084 0.369,-0.087L0.374,-0.087L0.374,-0.005Z" style="fill-rule:nonzero;"/>
        </g>
        <g transform="matrix(14,0,0,14,33.9268,0)">
            <path d="M0.546,0L0.455,0L0.455,-0.311C0.455,-0.336 0.453,-0.359 0.45,-0.381C0.447,-0.403 0.442,-0.42 0.434,-0.433C0.426,-0.446 0.414,-0.456 0.399,-0.463C0.384,-0.47 0.364,-0.473 0.339,-0.473C0.314,-0.473 0.288,-0.467 0.261,-0.455C0.233,-0.442 0.207,-0.426 0.182,-0.407L0.182,0L0.09,0L0.09,-0.76L0.182,-0.76L0.182,-0.485C0.211,-0.509 0.24,-0.527 0.271,-0.541C0.302,-0.554 0.333,-0.561 0.365,-0.561C0.424,-0.561 0.469,-0.543 0.5,-0.507C0.531,-0.472 0.546,-0.421 0.546,-0.354L0.546,0Z" style="fill-rule:nonzero;"/>
        </g>
        <g transform="matrix(14,0,0,14,42.7861,0)">
            <path d="M0.886,0L0.794,0L0.794,-0.311C0.794,-0.334 0.793,-0.357 0.791,-0.378C0.789,-0.4 0.785,-0.418 0.778,-0.431C0.77,-0.445 0.76,-0.455 0.746,-0.462C0.732,-0.47 0.711,-0.473 0.685,-0.473C0.659,-0.473 0.634,-0.467 0.608,-0.454C0.582,-0.441 0.556,-0.425 0.531,-0.405C0.532,-0.397 0.533,-0.389 0.533,-0.379C0.534,-0.369 0.534,-0.359 0.534,-0.349L0.534,0L0.442,0L0.442,-0.311C0.442,-0.335 0.441,-0.358 0.439,-0.379C0.437,-0.401 0.433,-0.418 0.426,-0.431C0.418,-0.445 0.408,-0.456 0.394,-0.463C0.38,-0.47 0.359,-0.473 0.333,-0.473C0.308,-0.473 0.283,-0.467 0.258,-0.455C0.232,-0.442 0.207,-0.426 0.182,-0.407L0.182,0L0.09,0L0.09,-0.545L0.182,-0.545L0.182,-0.485C0.211,-0.509 0.239,-0.527 0.268,-0.541C0.296,-0.554 0.327,-0.561 0.359,-0.561C0.396,-0.561 0.427,-0.553 0.453,-0.537C0.479,-0.521 0.499,-0.5 0.511,-0.472C0.548,-0.503 0.582,-0.526 0.613,-0.54C0.643,-0.554 0.676,-0.561 0.711,-0.561C0.771,-0.561 0.815,-0.542 0.844,-0.506C0.872,-0.47 0.886,-0.419 0.886,-0.354L0.886,0Z" style="fill-rule:nonzero;"/>
        </g>
        <g transform="matrix(14,0,0,14,56.4033,0)">
            <path d="M0.547,-0.263L0.145,-0.263C0.145,-0.23 0.15,-0.2 0.16,-0.176C0.17,-0.151 0.184,-0.13 0.202,-0.114C0.219,-0.099 0.239,-0.087 0.262,-0.079C0.285,-0.071 0.311,-0.067 0.339,-0.067C0.376,-0.067 0.413,-0.075 0.451,-0.09C0.489,-0.104 0.515,-0.119 0.531,-0.133L0.536,-0.133L0.536,-0.033C0.505,-0.02 0.474,-0.009 0.441,0C0.409,0.008 0.375,0.013 0.34,0.013C0.249,0.013 0.179,-0.012 0.128,-0.061C0.077,-0.11 0.052,-0.179 0.052,-0.27C0.052,-0.359 0.076,-0.43 0.125,-0.482C0.173,-0.534 0.237,-0.561 0.317,-0.561C0.39,-0.561 0.447,-0.539 0.487,-0.496C0.527,-0.453 0.547,-0.392 0.547,-0.313L0.547,-0.263ZM0.458,-0.333C0.457,-0.382 0.445,-0.419 0.421,-0.445C0.397,-0.472 0.361,-0.485 0.312,-0.485C0.263,-0.485 0.224,-0.47 0.195,-0.441C0.165,-0.412 0.149,-0.376 0.145,-0.333L0.458,-0.333Z" style="fill-rule:nonzero;"/>
        </g>
        <g transform="matrix(14,0,0,14,64.7432,0)">
            <path d="M0.374,-0.005C0.356,0 0.337,0.003 0.317,0.006C0.297,0.009 0.279,0.011 0.263,0.011C0.207,0.011 0.165,-0.004 0.136,-0.034C0.107,-0.064 0.092,-0.112 0.092,-0.178L0.092,-0.468L0.03,-0.468L0.03,-0.545L0.092,-0.545L0.092,-0.702L0.184,-0.702L0.184,-0.545L0.374,-0.545L0.374,-0.468L0.184,-0.468L0.184,-0.22C0.184,-0.191 0.185,-0.169 0.186,-0.153C0.187,-0.136 0.192,-0.121 0.2,-0.107C0.207,-0.094 0.217,-0.085 0.229,-0.079C0.242,-0.073 0.261,-0.07 0.287,-0.07C0.302,-0.07 0.317,-0.072 0.333,-0.076C0.35,-0.081 0.361,-0.084 0.369,-0.087L0.374,-0.087L0.374,-0.005Z" style="fill-rule:nonzero;"/>
        </g>
        <g transform="matrix(14,0,0,14,70.2598,0)">
            <path d="M0.189,-0.637L0.085,-0.637L0.085,-0.732L0.189,-0.732L0.189,-0.637ZM0.183,0L0.091,0L0.091,-0.545L0.183,-0.545L0.183,0Z" style="fill-rule:nonzero;"/>
        </g>
        <g transform="matrix(14,0,0,14,74.1016,0)">
            <path d="M0.494,-0.034C0.463,-0.02 0.434,-0.008 0.406,0C0.379,0.008 0.35,0.012 0.319,0.012C0.279,0.012 0.243,0.006 0.21,-0.005C0.178,-0.017 0.149,-0.034 0.126,-0.058C0.102,-0.081 0.084,-0.111 0.071,-0.146C0.058,-0.182 0.051,-0.224 0.051,-0.272C0.051,-0.361 0.076,-0.431 0.125,-0.482C0.174,-0.533 0.238,-0.558 0.319,-0.558C0.35,-0.558 0.381,-0.554 0.411,-0.545C0.441,-0.536 0.469,-0.525 0.494,-0.513L0.494,-0.411L0.489,-0.411C0.461,-0.432 0.432,-0.449 0.402,-0.461C0.372,-0.473 0.343,-0.479 0.315,-0.479C0.263,-0.479 0.222,-0.461 0.192,-0.426C0.162,-0.391 0.146,-0.34 0.146,-0.272C0.146,-0.206 0.161,-0.156 0.191,-0.12C0.22,-0.085 0.262,-0.067 0.315,-0.067C0.333,-0.067 0.352,-0.07 0.372,-0.075C0.391,-0.08 0.408,-0.086 0.423,-0.094C0.437,-0.101 0.449,-0.108 0.461,-0.115C0.473,-0.123 0.482,-0.13 0.489,-0.135L0.494,-0.135L0.494,-0.034Z" style="fill-rule:nonzero;"/>
        </g>
        <g transform="matrix(14,0,0,14,86.3174,0)">
            <path d="M0.776,-0.545L0.634,0L0.549,0L0.409,-0.42L0.27,0L0.186,0L0.042,-0.545L0.138,-0.545L0.238,-0.123L0.374,-0.545L0.45,-0.545L0.589,-0.123L0.684,-0.545L0.776,-0.545Z" style="fill-rule:nonzero;"/>
        </g>
        <g transform="matrix(14,0,0,14,97.7744,0)">
            <path d="M0.189,-0.637L0.085,-0.637L0.085,-0.732L0.189,-0.732L0.189,-0.637ZM0.183,0L0.091,0L0.091,-0.545L0.183,-0.545L0.183,0Z" style="fill-rule:nonzero;"/>
        </g>
        <g transform="matrix(14,0,0,14,101.616,0)">
            <path d="M0.374,-0.005C0.356,0 0.337,0.003 0.317,0.006C0.297,0.009 0.279,0.011 0.263,0.011C0.207,0.011 0.165,-0.004 0.136,-0.034C0.107,-0.064 0.092,-0.112 0.092,-0.178L0.092,-0.468L0.03,-0.468L0.03,-0.545L0.092,-0.545L0.092,-0.702L0.184,-0.702L0.184,-0.545L0.374,-0.545L0.374,-0.468L0.184,-0.468L0.184,-0.22C0.184,-0.191 0.185,-0.169 0.186,-0.153C0.187,-0.136 0.192,-0.121 0.2,-0.107C0.207,-0.094 0.217,-0.085 0.229,-0.079C0.242,-0.073 0.261,-0.07 0.287,-0.07C0.302,-0.07 0.317,-0.072 0.333,-0.076C0.35,-0.081 0.361,-0.084 0.369,-0.087L0.374,-0.087L0.374,-0.005Z" style="fill-rule:nonzero;"/>
        </g>
        <g transform="matrix(14,0,0,14,107.133,0)">
            <path d="M0.546,0L0.455,0L0.455,-0.311C0.455,-0.336 0.453,-0.359 0.45,-0.381C0.447,-0.403 0.442,-0.42 0.434,-0.433C0.426,-0.446 0.414,-0.456 0.399,-0.463C0.384,-0.47 0.364,-0.473 0.339,-0.473C0.314,-0.473 0.288,-0.467 0.261,-0.455C0.233,-0.442 0.207,-0.426 0.182,-0.407L0.182,0L0.09,0L0.09,-0.76L0.182,-0.76L0.182,-0.485C0.211,-0.509 0.24,-0.527 0.271,-0.541C0.302,-0.554 0.333,-0.561 0.365,-0.561C0.424,-0.561 0.469,-0.543 0.5,-0.507C0.531,-0.472 0.546,-0.421 0.546,-0.354L0.546,0Z" style="fill-rule:nonzero;"/>
        </g>
        <g transform="matrix(14,0,0,14,115.992,0)">
            <path d="M0.555,-0.272C0.555,-0.184 0.532,-0.113 0.487,-0.062C0.441,-0.011 0.38,0.015 0.304,0.015C0.227,0.015 0.165,-0.011 0.12,-0.062C0.074,-0.113 0.052,-0.184 0.052,-0.272C0.052,-0.361 0.074,-0.432 0.12,-0.483C0.165,-0.535 0.227,-0.561 0.304,-0.561C0.38,-0.561 0.441,-0.535 0.487,-0.483C0.532,-0.432 0.555,-0.361 0.555,-0.272ZM0.46,-0.272C0.46,-0.343 0.447,-0.396 0.419,-0.43C0.391,-0.464 0.353,-0.481 0.304,-0.481C0.254,-0.481 0.215,-0.464 0.188,-0.43C0.16,-0.396 0.146,-0.343 0.146,-0.272C0.146,-0.204 0.16,-0.152 0.188,-0.117C0.216,-0.082 0.254,-0.064 0.304,-0.064C0.353,-0.064 0.391,-0.081 0.419,-0.116C0.447,-0.151 0.46,-0.203 0.46,-0.272Z" style="fill-rule:nonzero;"/>
        </g>
        <g transform="matrix(14,0,0,14,124.489,0)">
            <path d="M0.542,0L0.451,0L0.451,-0.061C0.42,-0.036 0.39,-0.017 0.362,-0.004C0.333,0.009 0.302,0.015 0.268,0.015C0.211,0.015 0.166,-0.002 0.134,-0.037C0.102,-0.072 0.086,-0.124 0.086,-0.191L0.086,-0.545L0.178,-0.545L0.178,-0.235C0.178,-0.207 0.18,-0.184 0.182,-0.164C0.185,-0.144 0.19,-0.127 0.199,-0.113C0.208,-0.099 0.219,-0.089 0.233,-0.082C0.247,-0.076 0.267,-0.072 0.294,-0.072C0.318,-0.072 0.344,-0.078 0.372,-0.091C0.4,-0.103 0.426,-0.119 0.451,-0.138L0.451,-0.545L0.542,-0.545L0.542,0Z" style="fill-rule:nonzero;"/>
        </g>
        <g transform="matrix(14,0,0,14,133.349,0)">
            <path d="M0.374,-0.005C0.356,0 0.337,0.003 0.317,0.006C0.297,0.009 0.279,0.011 0.263,0.011C0.207,0.011 0.165,-0.004 0.136,-0.034C0.107,-0.064 0.092,-0.112 0.092,-0.178L0.092,-0.468L0.03,-0.468L0.03,-0.545L0.092,-0.545L0.092,-0.702L0.184,-0.702L0.184,-0.545L0.374,-0.545L0.374,-0.468L0.184,-0.468L0.184,-0.22C0.184,-0.191 0.185,-0.169 0.186,-0.153C0.187,-0.136 0.192,-0.121 0.2,-0.107C0.207,-0.094 0.217,-0.085 0.229,-0.079C0.242,-0.073 0.261,-0.07 0.287,-0.07C0.302,-0.07 0.317,-0.072 0.333,-0.076C0.35,-0.081 0.361,-0.084 0.369,-0.087L0.374,-0.087L0.374,-0.005Z" style="fill-rule:nonzero;"/>
        </g>
        <g transform="matrix(14,0,0,14,143.787,0)">
            <rect x="0.091" y="-0.76" width="0.092" height="0.76" style="fill-rule:nonzero;"/>
        </g>
        <g transform="matrix(14,0,0,14,147.629,0)">
            <path d="M0.189,-0.637L0.085,-0.637L0.085,-0.732L0.189,-0.732L0.189,-0.637ZM0.183,0L0.091,0L0.091,-0.545L0.183,-0.545L0.183,0Z" style="fill-rule:nonzero;"/>
        </g>
        <g transform="matrix(14,0,0,14,151.471,0)">
            <path d="M0.886,0L0.794,0L0.794,-0.311C0.794,-0.334 0.793,-0.357 0.791,-0.378C0.789,-0.4 0.785,-0.418 0.778,-0.431C0.77,-0.445 0.76,-0.455 0.746,-0.462C0.732,-0.47 0.711,-0.473 0.685,-0.473C0.659,-0.473 0.634,-0.467 0.608,-0.454C0.582,-0.441 0.556,-0.425 0.531,-0.405C0.532,-0.397 0.533,-0.389 0.533,-0.379C0.534,-0.369 0.534,-0.359 0.534,-0.349L0.534,0L0.442,0L0.442,-0.311C0.442,-0.335 0.441,-0.358 0.439,-0.379C0.437,-0.401 0.433,-0.418 0.426,-0.431C0.418,-0.445 0.408,-0.456 0.394,-0.463C0.38,-0.47 0.359,-0.473 0.333,-0.473C0.308,-0.473 0.283,-0.467 0.258,-0.455C0.232,-0.442 0.207,-0.426 0.182,-0.407L0.182,0L0.09,0L0.09,-0.545L0.182,-0.545L0.182,-0.485C0.211,-0.509 0.239,-0.527 0.268,-0.541C0.296,-0.554 0.327,-0.561 0.359,-0.561C0.396,-0.561 0.427,-0.553 0.453,-0.537C0.479,-0.521 0.499,-0.5 0.511,-0.472C0.548,-0.503 0.582,-0.526 0.613,-0.54C0.643,-0.554 0.676,-0.561 0.711,-0.561C0.771,-0.561 0.815,-0.542 0.844,-0.506C0.872,-0.47 0.886,-0.419 0.886,-0.354L0.886,0Z" style="fill-rule:nonzero;"/>
        </g>
        <g transform="matrix(14,0,0,14,165.088,0)">
            <path d="M0.189,-0.637L0.085,-0.637L0.085,-0.732L0.189,-0.732L0.189,-0.637ZM0.183,0L0.091,0L0.091,-0.545L0.183,-0.545L0.183,0Z" style="fill-rule:nonzero;"/>
        </g>
        <g transform="matrix(14,0,0,14,168.93,0)">
            <path d="M0.374,-0.005C0.356,0 0.337,0.003 0.317,0.006C0.297,0.009 0.279,0.011 0.263,0.011C0.207,0.011 0.165,-0.004 0.136,-0.034C0.107,-0.064 0.092,-0.112 0.092,-0.178L0.092,-0.468L0.03,-0.468L0.03,-0.545L0.092,-0.545L0.092,-0.702L0.184,-0.702L0.184,-0.545L0.374,-0.545L0.374,-0.468L0.184,-0.468L0.184,-0.22C0.184,-0.191 0.185,-0.169 0.186,-0.153C0.187,-0.136 0.192,-0.121 0.2,-0.107C0.207,-0.094 0.217,-0.085 0.229,-0.079C0.242,-0.073 0.261,-0.07 0.287,-0.07C0.302,-0.07 0.317,-0.072 0.333,-0.076C0.35,-0.081 0.361,-0.084 0.369,-0.087L0.374,-0.087L0.374,-0.005Z" style="fill-rule:nonzero;"/>
        </g>
        <g transform="matrix(14,0,0,14,174.446,0)">
            <path d="M0.514,0L0.423,0L0.423,-0.058C0.415,-0.053 0.404,-0.045 0.39,-0.035C0.376,-0.025 0.363,-0.017 0.35,-0.011C0.334,-0.004 0.317,0.003 0.297,0.008C0.277,0.013 0.254,0.015 0.227,0.015C0.178,0.015 0.136,-0.001 0.102,-0.034C0.068,-0.066 0.051,-0.108 0.051,-0.158C0.051,-0.2 0.06,-0.233 0.077,-0.259C0.095,-0.284 0.12,-0.304 0.153,-0.319C0.187,-0.333 0.226,-0.343 0.273,-0.349C0.319,-0.354 0.369,-0.358 0.423,-0.36L0.423,-0.375C0.423,-0.395 0.419,-0.413 0.412,-0.426C0.405,-0.44 0.394,-0.451 0.38,-0.458C0.367,-0.466 0.352,-0.471 0.333,-0.474C0.315,-0.476 0.296,-0.478 0.276,-0.478C0.252,-0.478 0.225,-0.474 0.196,-0.468C0.166,-0.462 0.136,-0.452 0.104,-0.44L0.099,-0.44L0.099,-0.534C0.117,-0.539 0.143,-0.544 0.177,-0.55C0.211,-0.556 0.244,-0.559 0.277,-0.559C0.315,-0.559 0.349,-0.555 0.377,-0.549C0.406,-0.543 0.43,-0.532 0.451,-0.517C0.472,-0.502 0.487,-0.482 0.498,-0.458C0.509,-0.435 0.514,-0.405 0.514,-0.37L0.514,0ZM0.423,-0.134L0.423,-0.286C0.395,-0.285 0.362,-0.282 0.324,-0.279C0.286,-0.276 0.256,-0.271 0.234,-0.265C0.208,-0.257 0.186,-0.246 0.17,-0.23C0.154,-0.214 0.146,-0.192 0.146,-0.165C0.146,-0.133 0.155,-0.11 0.174,-0.094C0.193,-0.078 0.222,-0.07 0.26,-0.07C0.292,-0.07 0.322,-0.077 0.349,-0.089C0.375,-0.102 0.4,-0.117 0.423,-0.134Z" style="fill-rule:nonzero;"/>
        </g>
        <g transform="matrix(14,0,0,14,182.854,0)">
            <path d="M0.374,-0.005C0.356,0 0.337,0.003 0.317,0.006C0.297,0.009 0.279,0.011 0.263,0.011C0.207,0.011 0.165,-0.004 0.136,-0.034C0.107,-0.064 0.092,-0.112 0.092,-0.178L0.092,-0.468L0.03,-0.468L0.03,-0.545L0.092,-0.545L0.092,-0.702L0.184,-0.702L0.184,-0.545L0.374,-0.545L0.374,-0.468L0.184,-0.468L0.184,-0.22C0.184,-0.191 0.185,-0.169 0.186,-0.153C0.187,-0.136 0.192,-0.121 0.2,-0.107C0.207,-0.094 0.217,-0.085 0.229,-0.079C0.242,-0.073 0.261,-0.07 0.287,-0.07C0.302,-0.07 0.317,-0.072 0.333,-0.076C0.35,-0.081 0.361,-0.084 0.369,-0.087L0.374,-0.087L0.374,-0.005Z" style="fill-rule:nonzero;"/>
        </g>
        <g transform="matrix(14,0,0,14,188.371,0)">
            <path d="M0.189,-0.637L0.085,-0.637L0.085,-0.732L0.189,-0.732L0.189,-0.637ZM0.183,0L0.091,0L0.091,-0.545L0.183,-0.545L0.183,0Z" style="fill-rule:nonzero;"/>
        </g>
        <g transform="matrix(14,0,0,14,192.213,0)">
            <path d="M0.555,-0.272C0.555,-0.184 0.532,-0.113 0.487,-0.062C0.441,-0.011 0.38,0.015 0.304,0.015C0.227,0.015 0.165,-0.011 0.12,-0.062C0.074,-0.113 0.052,-0.184 0.052,-0.272C0.052,-0.361 0.074,-0.432 0.12,-0.483C0.165,-0.535 0.227,-0.561 0.304,-0.561C0.38,-0.561 0.441,-0.535 0.487,-0.483C0.532,-0.432 0.555,-0.361 0.555,-0.272ZM0.46,-0.272C0.46,-0.343 0.447,-0.396 0.419,-0.43C0.391,-0.464 0.353,-0.481 0.304,-0.481C0.254,-0.481 0.215,-0.464 0.188,-0.43C0.16,-0.396 0.146,-0.343 0.146,-0.272C0.146,-0.204 0.16,-0.152 0.188,-0.117C0.216,-0.082 0.254,-0.064 0.304,-0.064C0.353,-0.064 0.391,-0.081 0.419,-0.116C0.447,-0.151 0.46,-0.203 0.46,-0.272Z" style="fill-rule:nonzero;"/>
        </g>
        <g transform="matrix(14,0,0,14,200.71,0)">
            <path d="M0.546,0L0.455,0L0.455,-0.311C0.455,-0.336 0.453,-0.359 0.45,-0.381C0.447,-0.403 0.442,-0.42 0.434,-0.433C0.426,-0.446 0.414,-0.456 0.399,-0.463C0.384,-0.47 0.364,-0.473 0.339,-0.473C0.314,-0.473 0.288,-0.467 0.261,-0.455C0.233,-0.442 0.207,-0.426 0.182,-0.407L0.182,0L0.09,0L0.09,-0.545L0.182,-0.545L0.182,-0.485C0.211,-0.509 0.24,-0.527 0.271,-0.541C0.302,-0.554 0.333,-0.561 0.365,-0.561C0.424,-0.561 0.469,-0.543 0.5,-0.507C0.531,-0.472 0.546,-0.421 0.546,-0.354L0.546,0Z" style="fill-rule:nonzero;"/>
        </g>
        <g transform="matrix(14,0,0,14,209.569,0)">
            <path d="M0.48,-0.157C0.48,-0.107 0.459,-0.067 0.418,-0.035C0.377,-0.003 0.321,0.013 0.25,0.013C0.209,0.013 0.172,0.008 0.138,-0.001C0.105,-0.011 0.076,-0.021 0.054,-0.033L0.054,-0.136L0.059,-0.136C0.088,-0.114 0.12,-0.097 0.155,-0.084C0.191,-0.071 0.225,-0.064 0.257,-0.064C0.298,-0.064 0.329,-0.071 0.352,-0.084C0.375,-0.097 0.386,-0.118 0.386,-0.146C0.386,-0.167 0.38,-0.183 0.368,-0.194C0.355,-0.205 0.332,-0.215 0.296,-0.223C0.283,-0.226 0.266,-0.229 0.245,-0.233C0.224,-0.237 0.205,-0.241 0.188,-0.246C0.14,-0.258 0.106,-0.277 0.086,-0.302C0.066,-0.326 0.056,-0.356 0.056,-0.392C0.056,-0.415 0.061,-0.436 0.07,-0.456C0.079,-0.475 0.093,-0.493 0.112,-0.509C0.131,-0.524 0.154,-0.536 0.182,-0.545C0.21,-0.554 0.242,-0.559 0.276,-0.559C0.309,-0.559 0.342,-0.555 0.375,-0.547C0.409,-0.539 0.436,-0.529 0.458,-0.518L0.458,-0.419L0.454,-0.419C0.43,-0.437 0.402,-0.451 0.368,-0.463C0.335,-0.475 0.302,-0.481 0.27,-0.481C0.236,-0.481 0.208,-0.475 0.185,-0.462C0.161,-0.449 0.15,-0.43 0.15,-0.404C0.15,-0.382 0.157,-0.365 0.171,-0.354C0.185,-0.342 0.207,-0.333 0.237,-0.326C0.254,-0.322 0.273,-0.318 0.294,-0.314C0.315,-0.31 0.333,-0.306 0.347,-0.303C0.389,-0.293 0.422,-0.277 0.445,-0.253C0.468,-0.229 0.48,-0.197 0.48,-0.157Z" style="fill-rule:nonzero;"/>
        </g>
        <g transform="matrix(14,0,0,14,216.863,0)">
            <path d="M0.563,-0.297L0.295,-0.079L0.295,-0.175L0.476,-0.318L0.295,-0.462L0.295,-0.558L0.563,-0.34L0.563,-0.297ZM0.343,-0.298L0.085,-0.093L0.085,-0.185L0.259,-0.318L0.085,-0.452L0.085,-0.543L0.343,-0.339L0.343,-0.298Z" style="fill-rule:nonzero;"/>
        </g>
    </g>
</svg>
